<?xml version="1.0" encoding="utf-8"?>
<!-- Generator: Adobe Illustrator 22.1.0, SVG Export Plug-In . SVG Version: 6.00 Build 0)  -->
<svg version="1.1" id="Capa_1" xmlns="http://www.w3.org/2000/svg" xmlns:xlink="http://www.w3.org/1999/xlink" x="0px" y="0px"
	 width="484.4px" height="90.5px" viewBox="0 0 484.4 90.5" style="enable-background:new 0 0 484.4 90.5;" xml:space="preserve">
<style type="text/css">
	.st0{fill:#7ED6B5;}
	.st1{fill:#D17171;}
	.st2{fill:#F16767;}
	.st3{fill:#5D9EE4;}
</style>
<g>
	<g>
		<g>
			<path class="st0" d="M225,15.3c0.2-0.5,0.5-0.9,1.2-0.9h18.5c0.6,0,1,0.4,1.2,0.9l20.9,59.9c0.2,0.5-0.1,0.9-0.6,0.9h-18.4
				c-0.6,0-1-0.4-1.2-0.9l-2.3-8.1h-18.1l-2.3,8.1c-0.2,0.5-0.5,0.9-1.2,0.9h-18.4c-0.5,0-0.8-0.4-0.6-0.9L225,15.3z M240,51.6
				l-4.5-16.4h-0.3l-4.7,16.4H240z"/>
		</g>
	</g>
	<g>
		<g>
			<path class="st0" d="M277.2,77c-0.5,0-0.9-0.4-0.9-0.9V32.7c0-0.4-0.2-0.5-0.5-0.5h-14.6c-0.5,0-0.9-0.4-0.9-0.9V16.2
				c0-0.5,0.4-0.9,0.9-0.9h49.4c0.5,0,0.9,0.4,0.9,0.9v15.1c0,0.5-0.4,0.9-0.9,0.9h-14.6c-0.4,0-0.5,0.2-0.5,0.5v43.4
				c0,0.5-0.4,0.9-0.9,0.9H277.2z"/>
		</g>
	</g>
	<g>
		<g>
			<path class="st0" d="M407.8,76.1c-0.8,0-1.1-0.3-1.4-0.9L398.5,56h-3.2c-0.4,0-0.5,0.2-0.5,0.5v18.7c0,0.5-0.4,0.9-0.9,0.9h-17.2
				c-0.5,0-0.9-0.4-0.9-0.9V15.3c0-0.5,0.4-0.9,0.9-0.9h25.8c15.9,0,23.8,8.7,23.8,20.8c0,7.5-3.1,13.7-9.3,17.3l10.3,22.6
				c0.2,0.5,0,1-0.6,1H407.8z M407.2,35.5c0-3.3-2.1-5.3-6.2-5.3h-5.7c-0.4,0-0.5,0.2-0.5,0.5v9.4c0,0.4,0.2,0.5,0.5,0.5h5.7
				C405.1,40.7,407.2,38.7,407.2,35.5z"/>
		</g>
	</g>
	<g>
		<g>
			<path class="st0" d="M316.7,51V15.3c0-0.5,0.4-0.9,0.9-0.9h17.2c0.5,0,0.9,0.4,0.9,0.9v37.3c0,4.8,2.2,7.7,6.5,7.7
				s6.5-2.9,6.5-7.7V15.3c0-0.5,0.4-0.9,0.9-0.9H367c0.5,0,0.9,0.4,0.9,0.9V51c0,17.7-9.9,26.2-25.5,26.2
				C326.7,77.2,316.7,68.7,316.7,51z"/>
		</g>
	</g>
	<g>
		<g>
			<path class="st0" d="M433.4,15.3c0-0.5,0.4-0.9,0.9-0.9h16.2c0.5,0,1.3,0.3,1.5,0.9l14.7,30.4h0.5V15.3c0-0.5,0.4-0.9,0.9-0.9
				h15.3c0.5,0,0.9,0.4,0.9,0.9v59.9c0,0.5-0.4,0.9-0.9,0.9h-16.2c-0.5,0-1.3-0.3-1.5-0.9l-14.6-30.4h-0.5v30.4
				c0,0.5-0.4,0.9-0.9,0.9h-15.3c-0.5,0-0.9-0.4-0.9-0.9V15.3z"/>
		</g>
	</g>
	<g>
		<g>
			<path class="st0" d="M149.6,68.1c-0.4-0.4-0.5-1.1-0.1-1.6l9.6-11.3c0.4-0.5,0.8-0.5,1.2-0.1c3.4,3.1,9.3,6,15.1,6
				c4.8,0,7.1-1.5,7.1-4c0-1.6-1.1-2.6-5.8-3.3l-3.3-0.5c-14.2-2-21.7-8.3-21.7-20.4c0-11.7,9.3-19.6,24-19.6
				c9.2,0,17.4,2.6,23.3,7.1c0.5,0.4,0.6,0.9,0.2,1.5L191,33.6c-0.4,0.5-0.8,0.5-1.3,0.3c-4-2.6-8.6-4.4-13.3-4.4
				c-3.6,0-5.3,1.5-5.3,3.4c0,1.8,1.5,2.7,5.9,3.4l3.3,0.5c14.6,2,21.6,8.3,21.6,20.5c0,11.7-9.2,20.1-26.4,20.1
				C164.9,77.2,154.3,72.9,149.6,68.1z"/>
		</g>
	</g>
	<g>
		<g>
			<path class="st1" d="M49.7,49.2c10.5-2.5,21-5.4,31.3-8.6c8.7-2.7,17.3-5.6,25.8-8.8C101.1,17.5,87,7.2,70.6,7.2
				c-21.5,0-38.9,17.4-38.9,38.9c0,2.3,0.2,4.6,0.6,6.9C38.1,51.9,43.9,50.6,49.7,49.2z"/>
		</g>
		<g>
			<path class="st1" d="M82.8,46.8c-10.5,3-21.2,5.7-31.9,8c-5.8,1.2-11.6,2.4-17.4,3.4c3.3,10,10.5,18.2,19.8,22.8
				c9.3-3.8,19.2-8.6,29.2-14.4c9.9-5.7,19-11.8,26.8-17.9c0.1-0.8,0.1-1.7,0.1-2.6c0-2.6-0.3-5.1-0.7-7.5
				C100.2,41.6,91.6,44.4,82.8,46.8z"/>
		</g>
	</g>
	<g>
		<path class="st2" d="M49.7,49.2c10.5-2.5,21-5.4,31.3-8.6c8.7-2.7,17.3-5.6,25.8-8.8C101.1,17.5,87,7.2,70.6,7.2
			c-21.5,0-38.9,17.4-38.9,38.9c0,2.3,0.2,4.6,0.6,6.9C38.1,51.9,43.9,50.6,49.7,49.2z"/>
		<path class="st2" d="M82.8,46.8c-10.5,3-21.2,5.7-31.9,8c-5.8,1.2-11.6,2.4-17.4,3.4c3.3,10,10.5,18.2,19.8,22.8
			c9.3-3.8,19.2-8.6,29.2-14.4c9.9-5.7,19-11.8,26.8-17.9c0.1-0.8,0.1-1.7,0.1-2.6c0-2.6-0.3-5.1-0.7-7.5
			C100.2,41.6,91.6,44.4,82.8,46.8z"/>
	</g>
	<g>
		<path class="st3" d="M32.1,53.1c0.1,0,0.1,0,0.2,0c-0.4-2.2-0.6-4.5-0.6-6.9c0-1.7,0.1-3.4,0.3-5.1c-6.7,5.1-12.5,10.2-17.3,15.1
			C20.5,55.3,26.3,54.2,32.1,53.1z"/>
		<path class="st3" d="M33.5,58.2c-0.1,0-0.1,0-0.2,0c-7.9,1.4-15.8,2.6-23.8,3.6C1.5,71.5-1.9,79.9,1.1,85.2
			c5,8.7,26.2,6.5,52.2-4.1C44,76.4,36.8,68.2,33.5,58.2z"/>
	</g>
	<g>
		<path class="st3" d="M106.8,31.9c0,0,0.1,0,0.1-0.1c1.6-0.6,3.2-1.2,4.7-1.8c8.7-3.4,17.3-7,25.8-10.8c3-5.6,3.8-10.4,1.8-13.8
			c-5.1-8.9-27.1-6.4-53.9,4.8C95.2,14.2,102.9,22.1,106.8,31.9z"/>
		<path class="st3" d="M114.1,36.7c-1.7,0.6-3.5,1.2-5.2,1.8c-0.1,0-0.1,0-0.2,0.1c0.5,2.4,0.7,4.9,0.7,7.5c0,0.9,0,1.7-0.1,2.6
			c7.7-5.9,14.2-11.9,19.2-17.5C123.8,33.2,119,35,114.1,36.7z"/>
	</g>
</g>
</svg>
